<mxfile host="app.diagrams.net" agent="Mozilla/5.0 (Macintosh; Intel Mac OS X 10_15_7) AppleWebKit/537.36 (KHTML, like Gecko) Chrome/138.0.0.0 Safari/537.36" version="28.1.2">
  <diagram name="第 1 页" id="edgIyYrV3-bsqyQEdJmo">
    <mxGraphModel dx="1018" dy="655" grid="1" gridSize="10" guides="1" tooltips="1" connect="1" arrows="1" fold="1" page="1" pageScale="1" pageWidth="827" pageHeight="1169" math="0" shadow="0">
      <root>
        <mxCell id="0" />
        <mxCell id="1" parent="0" />
        <mxCell id="ikrISnmshqjgnMXcJP4Y-1" value="" style="rounded=0;whiteSpace=wrap;html=1;" parent="1" vertex="1">
          <mxGeometry x="40" y="40" width="980" height="1010" as="geometry" />
        </mxCell>
        <mxCell id="fxycsDCcdfyfY2lIus3o-1" value="&lt;span&gt;&lt;/span&gt;&lt;span&gt;&lt;/span&gt;&lt;span style=&quot;white-space-collapse: preserve;&quot;&gt;员工综合素质行为记录录入&lt;/span&gt;" style="rounded=0;whiteSpace=wrap;html=1;" vertex="1" parent="1">
          <mxGeometry x="40" y="40" width="980" height="60" as="geometry" />
        </mxCell>
        <mxCell id="fxycsDCcdfyfY2lIus3o-2" value="智慧人力" style="rounded=0;whiteSpace=wrap;html=1;" vertex="1" parent="1">
          <mxGeometry x="40" y="100" width="260" height="90" as="geometry" />
        </mxCell>
        <mxCell id="fxycsDCcdfyfY2lIus3o-3" value="XXX系统" style="rounded=0;whiteSpace=wrap;html=1;" vertex="1" parent="1">
          <mxGeometry x="300" y="100" width="260" height="90" as="geometry" />
        </mxCell>
        <mxCell id="fxycsDCcdfyfY2lIus3o-5" value="平安工作流" style="rounded=0;whiteSpace=wrap;html=1;" vertex="1" parent="1">
          <mxGeometry x="560" y="100" width="230" height="90" as="geometry" />
        </mxCell>
        <mxCell id="fxycsDCcdfyfY2lIus3o-6" value="XXX系统(移动端/PC端&lt;span style=&quot;background-color: transparent; color: light-dark(rgb(0, 0, 0), rgb(255, 255, 255));&quot;&gt;)&lt;/span&gt;" style="rounded=0;whiteSpace=wrap;html=1;" vertex="1" parent="1">
          <mxGeometry x="790" y="100" width="230" height="90" as="geometry" />
        </mxCell>
        <mxCell id="fxycsDCcdfyfY2lIus3o-7" value="" style="rounded=0;whiteSpace=wrap;html=1;" vertex="1" parent="1">
          <mxGeometry x="40" y="190" width="260" height="860" as="geometry" />
        </mxCell>
        <mxCell id="fxycsDCcdfyfY2lIus3o-12" value="" style="edgeStyle=orthogonalEdgeStyle;rounded=0;orthogonalLoop=1;jettySize=auto;html=1;" edge="1" parent="1" source="fxycsDCcdfyfY2lIus3o-10" target="fxycsDCcdfyfY2lIus3o-11">
          <mxGeometry relative="1" as="geometry" />
        </mxCell>
        <mxCell id="fxycsDCcdfyfY2lIus3o-10" value="开始" style="strokeWidth=2;html=1;shape=mxgraph.flowchart.terminator;whiteSpace=wrap;" vertex="1" parent="1">
          <mxGeometry x="110" y="220" width="100" height="60" as="geometry" />
        </mxCell>
        <mxCell id="fxycsDCcdfyfY2lIus3o-11" value="发起&lt;span style=&quot;white-space-collapse: preserve;&quot;&gt;员工综合素质行为记录录入&lt;/span&gt;" style="whiteSpace=wrap;html=1;strokeWidth=2;" vertex="1" parent="1">
          <mxGeometry x="100" y="360" width="120" height="60" as="geometry" />
        </mxCell>
      </root>
    </mxGraphModel>
  </diagram>
</mxfile>
